#!OML:ASF G:\JayActor3\Patient Classification 1\Patient 1\Session 6\male.ASF
:FULLY-SPECIFIED
:DEGREES
589
root 5.7014 16.3809 -5.08659 265.454 -93.0208 -268.832
lowerback 2.83604 0.770658 3.92777
upperback 7.70927 0.850148 -2.35025
thorax 6.56503 0.639792 -4.65564
lowerneck -0.331289 -1.14803 1.06767
upperneck 24.3954 -3.80683 5.2783
head 7.63603 -1.64791 1.26081
rclavicle -3.97569e-016 -7.95139e-016
rhumerus -26.7827 -16.5424 -56.7366
rradius 88.7166
rwrist -55.9058
rhand -31.4224 -28.5744
rfingers 7.12502
rthumb -4.69099 -58.5025
lclavicle -3.97569e-016 -7.95139e-016
lhumerus -11.1254 26.0745 61.5403
lradius 96.0612
lwrist 83.0383
lhand -38.275 35.3098
lfingers 7.12502
lthumb -11.3045 64.9852
rfemur -10.6602 -0.347834 21.8154
rtibia 38.6837
rfoot -22.601 -12.3619
rtoes 4.59869
lfemur -4.54745 7.74543 -11.7927
ltibia 24.2323
lfoot -18.9955 -4.08511
ltoes -4.79591
590
root 5.69865 16.3839 -5.08965 268.306 -93.0111 -271.478
lowerback 2.76534 0.721309 3.80284
upperback 7.51758 0.791637 -2.26296
thorax 6.38518 0.596601 -4.49196
lowerneck -0.310319 -1.06989 1.10109
upperneck 23.6088 -3.54792 5.07757
head 7.35788 -1.53699 1.20639
rclavicle 2.5842e-015 3.33958e-014
rhumerus -26.777 -15.6345 -57.3981
rradius 90.6433
rwrist -56.6239
rhand -30.5973 -27.4633
rfingers 7.12502
rthumb -3.89427 -57.4075
lclavicle 2.5842e-015 3.33958e-014
lhumerus -12.1642 25.9103 61.9492
lradius 97.7084
lwrist 84.702
lhand -37.6359 35.4338
lfingers 7.12502
lthumb -10.6881 65.142
rfemur -10.597 -0.264873 21.8429
rtibia 38.1907
rfoot -22.7646 -12.3602
rtoes 4.9796
lfemur -4.74664 7.8739 -11.7582
ltibia 24.2686
lfoot -18.7181 -4.32739
ltoes -4.66731
591
root 5.69468 16.3877 -5.09218 271.448 -93.0762 -274.449
lowerback 2.69187 0.700971 3.77197
upperback 7.34414 0.769736 -2.17269
thorax 6.23442 0.57823 -4.37777
lowerneck -0.261533 -1.04243 1.16899
upperneck 22.7443 -3.35566 4.86509
head 7.05402 -1.45582 1.13865
rclavicle 2.78299e-015 -2.54444e-014
rhumerus -26.8556 -14.6996 -58.0353
rradius 92.486
rwrist -57.1319
rhand -29.2204 -27.1191
rfingers 7.12502
rthumb -2.56458 -57.0834
lclavicle 2.78299e-015 -2.54444e-014
lhumerus -13.3804 25.5208 62.2851
lradius 99.4803
lwrist 86.4582
lhand -36.963 35.3718
lfingers 7.12502
lthumb -10.0389 65.1124
rfemur -10.5004 -0.113443 21.9653
rtibia 37.7152
rfoot -22.8242 -12.5735
rtoes 4.66211
lfemur -4.90512 8.0657 -11.6311
ltibia 24.3056
lfoot -18.4805 -4.58013
ltoes -4.83625
592
root 5.69146 16.39 -5.09334 274.274 -93.023 -277.101
lowerback 2.64494 0.648673 3.61339
upperback 7.14059 0.709466 -2.11157
thorax 6.02977 0.533181 -4.22338
lowerneck -0.263611 -0.965689 1.13943
upperneck 21.9941 -3.12392 4.72606
head 6.80123 -1.35624 1.11329
rclavicle 6.75868e-015 2.14687e-014
rhumerus -26.9203 -13.4841 -58.6561
rradius 94.2838
rwrist -57.5834
rhand -28.0959 -26.3939
rfingers 7.12502
rthumb -1.4785 -56.3686
lclavicle 6.75868e-015 2.14687e-014
lhumerus -14.4215 25.072 62.6166
lradius 100.926
lwrist 88.1568
lhand -36.3408 35.1742
lfingers 7.12502
lthumb -9.43868 64.9428
rfemur -10.4277 0.0293982 21.9189
rtibia 37.2738
rfoot -22.9289 -12.6097
rtoes 4.79758
lfemur -5.07535 8.35761 -11.626
ltibia 24.3558
lfoot -18.2072 -5.0026
ltoes -5.14141
593
root 5.68738 16.3926 -5.09378 277.844 -93.0144 -280.53
lowerback 2.61784 0.628387 3.5407
upperback 6.95832 0.691217 -2.08074
thorax 5.84508 0.515565 -4.14877
lowerneck -0.294371 -0.919318 1.20674
upperneck 21.2329 -2.94292 4.577
head 6.5528 -1.27299 1.06502
rclavicle 1.33186e-014 0
rhumerus -27.0522 -12.2864 -59.2766
rradius 95.8517
rwrist -57.7351
rhand -26.5036 -25.3927
rfingers 7.12502
rthumb 0.0593187 -55.3724
lclavicle 1.33186e-014 0
lhumerus -15.382 24.4369 63.0111
lradius 102.218
lwrist 89.4325
lhand -35.6407 34.1423
lfingers 7.12502
lthumb -8.76313 63.9404
rfemur -10.344 0.226475 21.9038
rtibia 36.8773
rfoot -23.0075 -12.6758
rtoes 4.81874
lfemur -5.19309 8.51611 -11.5923
ltibia 24.42
lfoot -17.9919 -5.32088
ltoes -5.42066
594
root 5.68362 16.3956 -5.09449 281.855 -93.1063 -284.425
lowerback 2.62247 0.599546 3.53807
upperback 6.77959 0.660235 -2.02694
thorax 5.6467 0.494452 -4.09026
lowerneck -0.309661 -0.859107 1.27059
upperneck 20.4537 -2.73918 4.39509
head 6.29756 -1.18155 1.00838
rclavicle 7.95139e-015 -7.95139e-016
rhumerus -26.8735 -11.1845 -60.0072
rradius 97.1441
rwrist -57.8838
rhand -25.1608 -24.3856
rfingers 7.12502
rthumb 1.35625 -54.361
lclavicle 7.95139e-015 -7.95139e-016
lhumerus -16.459 23.8635 63.3262
lradius 103.556
lwrist 90.5203
lhand -34.6237 33.6962
lfingers 7.12502
lthumb -7.78158 63.533
rfemur -10.2768 0.549612 21.9967
rtibia 36.5389
rfoot -23.0797 -12.7702
rtoes 4.92012
lfemur -5.28642 8.58216 -11.4702
ltibia 24.5062
lfoot -17.8232 -5.51054
ltoes -5.91853
595
root 5.68162 16.3988 -5.0963 286.116 -93.1957 -288.584
lowerback 2.6651 0.577593 3.49287
upperback 6.59566 0.639903 -1.98218
thorax 5.42193 0.475951 -4.01719
lowerneck -0.315438 -0.784552 1.37725
upperneck 19.663 -2.5219 4.20708
head 6.0391 -1.08096 0.943512
rclavicle 1.0138e-014 -3.49861e-014
rhumerus -26.7414 -10.1038 -60.7269
rradius 98.3077
rwrist -57.7043
rhand -23.7121 -23.759
rfingers 7.12502
rthumb 2.75537 -53.721
lclavicle 1.0138e-014 -3.49861e-014
lhumerus -17.5104 23.2277 63.6507
lradius 104.817
lwrist 91.4683
lhand -33.2839 33.493
lfingers 7.12502
lthumb -6.48829 63.3736
rfemur -10.2347 0.887869 22.0631
rtibia 36.2413
rfoot -23.1216 -12.8608
rtoes 4.98432
lfemur -5.40805 8.75373 -11.3492
ltibia 24.6351
lfoot -17.5977 -5.75698
ltoes -6.8659
596
root 5.68077 16.4028 -5.09677 290.274 -93.3073 -292.644
lowerback 2.716 0.555781 3.4791
upperback 6.41455 0.620087 -1.95739
thorax 5.19729 0.459956 -3.98303
lowerneck -0.365885 -0.702111 1.44866
upperneck 18.9129 -2.31067 4.07408
head 5.80458 -0.980876 0.901268
rclavicle -3.37934e-015 1.66979e-014
rhumerus -26.6514 -9.01323 -61.4626
rradius 99.4422
rwrist -57.6391
rhand -21.879 -22.8037
rfingers 7.12502
rthumb 4.52564 -52.7353
lclavicle -3.37934e-015 1.66979e-014
lhumerus -18.4768 22.6026 64.0124
lradius 105.987
lwrist 92.147
lhand -32.2255 33.2868
lfingers 7.12502
lthumb -5.46643 63.1963
rfemur -10.2214 1.1743 22.1235
rtibia 35.9761
rfoot -23.1255 -12.9381
rtoes 4.80503
lfemur -5.55634 8.80835 -11.2245
ltibia 24.8111
lfoot -17.3124 -6.06442
ltoes -7.19799
597
root 5.68052 16.4091 -5.09595 294.762 -93.4545 -297.083
lowerback 2.8419 0.648116 3.57922
upperback 6.22161 0.757198 -2.02214
thorax 4.93824 0.529078 -4.10495
lowerneck -0.352312 -0.710904 1.75387
upperneck 18.1316 -2.24578 3.97298
head 5.55289 -0.936918 0.823059
rclavicle 1.78906e-015 -1.98785e-014
rhumerus -26.8444 -8.20119 -62.1678
rradius 100.534
rwrist -57.5773
rhand -19.9071 -21.6739
rfingers 7.12502
rthumb 6.42955 -51.5563
lclavicle 1.78906e-015 -1.98785e-014
lhumerus -19.4593 21.379 64.2991
lradius 107.092
lwrist 92.697
lhand -31.0296 33.1518
lfingers 7.12502
lthumb -4.31169 63.0879
rfemur -10.1874 1.4612 22.1759
rtibia 35.7471
rfoot -23.0872 -12.9749
rtoes 4.74062
lfemur -5.63196 8.87951 -11.0634
ltibia 24.9882
lfoot -16.9672 -6.53517
ltoes -7.29923
598
root 5.68219 16.4128 -5.08703 298.017 -93.6327 -300.312
lowerback 2.90772 0.541236 3.59028
upperback 6.14232 0.616129 -1.91626
thorax 4.80084 0.45315 -4.00254
lowerneck -0.548179 -0.530929 1.65418
upperneck 17.3714 -1.89226 3.8076
head 5.34226 -0.776579 0.805218
rclavicle 1.19271e-015 9.54166e-015
rhumerus -26.4621 -6.86637 -62.8203
rradius 101.427
rwrist -57.5643
rhand -18.062 -20.9931
rfingers 7.12502
rthumb 8.21052 -50.8136
lclavicle 1.19271e-015 9.54166e-015
lhumerus -20.4557 20.9178 64.7541
lradius 108.085
lwrist 93.0697
lhand -29.0547 33.1406
lfingers 7.12502
lthumb -2.40453 63.1068
rfemur -10.1313 1.56763 22.2099
rtibia 35.5233
rfoot -23.0287 -12.8818
rtoes 4.60103
lfemur -5.67753 8.70364 -10.8929
ltibia 25.1898
lfoot -16.686 -6.99686
ltoes -7.42891
599
root 5.68307 16.4166 -5.07737 302.123 -93.6808 -304.392
lowerback 2.95864 0.486229 3.48227
upperback 6.04338 0.547439 -1.88889
thorax 4.65764 0.409792 -3.91359
lowerneck -0.650798 -0.419074 1.68289
upperneck 16.5811 -1.64349 3.64849
head 5.10923 -0.660863 0.763103
rclavicle 4.96962e-015 1.59028e-015
rhumerus -26.2109 -5.63682 -63.4388
rradius 102.229
rwrist -57.5809
rhand -15.9788 -20.2467
rfingers 7.12502
rthumb 10.2206 -49.9784
lclavicle 4.96962e-015 1.59028e-015
lhumerus -21.3823 20.2581 65.2275
lradius 108.916
lwrist 93.4296
lhand -27.305 33.3085
lfingers 7.12502
lthumb -0.7147 63.287
rfemur -10.0787 1.65156 22.0634
rtibia 35.3041
rfoot -22.9549 -12.8151
rtoes 4.53086
lfemur -5.72319 8.35899 -10.9116
ltibia 25.3863
lfoot -16.4438 -7.42852
ltoes -7.58301
